<svg width="100" height="100" viewBox="0 0 100 100" fill="none" xmlns="http://www.w3.org/2000/svg">
<path d="M73.9642 29.3749C72.9642 29.2082 71.9225 29.1666 70.8392 29.1666H29.1725C28.0059 29.1666 26.8809 29.25 25.7975 29.4166C26.3809 28.25 27.2142 27.1667 28.2142 26.1667L41.7559 12.5834C47.4642 6.91671 56.7142 6.91671 62.4225 12.5834L69.7142 19.9582C72.3809 22.5832 73.7975 25.9166 73.9642 29.3749Z" stroke="white" stroke-width="2" stroke-linecap="round" stroke-linejoin="round"/>
<path d="M37.5 79.1667C37.5 82.2917 36.625 85.25 35.0833 87.75C32.2083 92.5833 26.9167 95.8333 20.8333 95.8333C14.75 95.8333 9.45835 92.5833 6.58335 87.75C5.04169 85.25 4.16669 82.2917 4.16669 79.1667C4.16669 69.9583 11.625 62.5 20.8333 62.5C30.0417 62.5 37.5 69.9583 37.5 79.1667Z" stroke="white" stroke-width="2" stroke-miterlimit="10" stroke-linecap="round" stroke-linejoin="round"/>
<path d="M27.0489 79.0812H14.6322" stroke="white" stroke-width="2" stroke-miterlimit="10" stroke-linecap="round" stroke-linejoin="round"/>
<path d="M20.8334 72.998V85.4563" stroke="white" stroke-width="2" stroke-miterlimit="10" stroke-linecap="round" stroke-linejoin="round"/>
<path d="M91.6667 50V70.8333C91.6667 83.3333 83.3333 91.6666 70.8333 91.6666H31.7916C33.0833 90.5833 34.2083 89.25 35.0833 87.75C36.625 85.25 37.5 82.2916 37.5 79.1666C37.5 69.9583 30.0416 62.5 20.8333 62.5C15.8333 62.5 11.375 64.7082 8.33331 68.1666V50C8.33331 38.6666 15.1666 30.7499 25.7916 29.4166C26.875 29.2499 28 29.1666 29.1666 29.1666H70.8333C71.9167 29.1666 72.9583 29.2082 73.9583 29.3749C84.7083 30.6249 91.6667 38.5833 91.6667 50Z" stroke="white" stroke-width="2" stroke-linecap="round" stroke-linejoin="round"/>
<path d="M91.6667 52.0834H79.1667C74.5834 52.0834 70.8334 55.8334 70.8334 60.4167C70.8334 65 74.5834 68.75 79.1667 68.75H91.6667" stroke="white" stroke-width="2" stroke-linecap="round" stroke-linejoin="round"/>
</svg>
