<svg width="50" height="50" viewBox="0 0 50 50" fill="none" xmlns="http://www.w3.org/2000/svg">
<path d="M22.9167 4.16663H18.75C8.33332 4.16663 4.16666 8.33329 4.16666 18.75V31.25C4.16666 41.6666 8.33332 45.8333 18.75 45.8333H31.25C41.6667 45.8333 45.8333 41.6666 45.8333 31.25V27.0833" stroke="white" stroke-width="1.5" stroke-linecap="round" stroke-linejoin="round"/>
<path d="M33.4167 6.2917L17 22.7084C16.375 23.3334 15.75 24.5625 15.625 25.4584L14.7292 31.7292C14.3958 34 16 35.5834 18.2708 35.2709L24.5417 34.375C25.4167 34.25 26.6458 33.625 27.2917 33L43.7083 16.5834C46.5417 13.75 47.875 10.4584 43.7083 6.2917C39.5417 2.12504 36.25 3.45837 33.4167 6.2917Z" stroke="white" stroke-width="1.5" stroke-miterlimit="10" stroke-linecap="round" stroke-linejoin="round"/>
<path d="M31.0625 8.64587C32.4583 13.625 36.3542 17.5209 41.3542 18.9375" stroke="white" stroke-width="1.5" stroke-miterlimit="10" stroke-linecap="round" stroke-linejoin="round"/>
</svg>
