<svg width="103" height="19" viewBox="0 0 103 19" fill="none" xmlns="http://www.w3.org/2000/svg">
<path d="M1.52705 13.8003C0.508749 12.7693 0 11.4982 0 9.98788C0 8.47758 0.508749 7.2073 1.52705 6.17545C2.54454 5.1444 3.78851 4.62847 5.25814 4.62847C6.72777 4.62847 7.97174 5.1444 8.98924 6.17545C10.0067 7.20651 10.5163 8.47758 10.5163 9.98788V10.696H2.12351C2.28539 11.5452 2.65618 12.2127 3.2359 12.6983C3.81562 13.1839 4.49023 13.4263 5.25814 13.4263C6.20148 13.4263 6.95663 13.1903 7.52359 12.7182C7.77956 12.5292 8.00204 12.2932 8.19103 12.0101H10.4158C10.1327 12.6712 9.77549 13.231 9.34408 13.6887C8.23807 14.7947 6.87689 15.3473 5.25894 15.3473C3.78931 15.3473 2.54534 14.8314 1.52784 13.8003H1.52705ZM2.22478 8.97676H8.2923C8.17109 8.30295 7.85053 7.72961 7.33141 7.25754C6.8123 6.78547 6.12094 6.54944 5.25814 6.54944C4.5301 6.54944 3.8826 6.76873 3.31644 7.20651C2.75028 7.64508 2.38586 8.23517 2.22398 8.97597L2.22478 8.97676Z" fill="white"/>
<path d="M11.3257 4.83101H13.5504L15.7752 13.2246H17.0902L19.3149 4.83101H21.5397L18.7081 15.1455H14.1573L11.3257 4.83101Z" fill="white"/>
<path d="M23.8753 13.8003C22.857 12.7693 22.3483 11.4982 22.3483 9.98788C22.3483 8.47758 22.857 7.2073 23.8753 6.17545C24.8928 5.1444 26.1368 4.62847 27.6064 4.62847C29.0761 4.62847 30.32 5.1444 31.3375 6.17545C32.355 7.20651 32.8646 8.47758 32.8646 9.98788V10.696H24.471C24.6329 11.5452 25.0037 12.2127 25.5834 12.6983C26.1631 13.1839 26.8377 13.4263 27.6056 13.4263C28.549 13.4263 29.3041 13.1903 29.8711 12.7182C30.1271 12.5292 30.3495 12.2932 30.5385 12.0101H32.7633C32.4802 12.6712 32.123 13.231 31.6916 13.6887C30.5856 14.7947 29.2244 15.3473 27.6064 15.3473C26.1368 15.3473 24.8928 14.8314 23.8753 13.8003ZM24.5731 8.97676H30.6406C30.5194 8.30295 30.1988 7.72961 29.6797 7.25754C29.1606 6.78547 28.4692 6.54944 27.6064 6.54944C26.8784 6.54944 26.2309 6.76873 25.6647 7.20651C25.0986 7.64508 24.7342 8.23517 24.5723 8.97597L24.5731 8.97676Z" fill="white"/>
<path d="M34.6851 15.1455V4.83101H36.8086V6.34769H36.9099C37.0582 6.06461 37.2743 5.79509 37.5573 5.53832C38.1769 4.99927 38.9058 4.72974 39.7415 4.72974H40.9551V6.75198H39.6402C38.8173 6.75198 38.1403 7.01194 37.6076 7.53026C37.0749 8.04937 36.8086 8.73355 36.8086 9.5828V15.1448H34.6851V15.1455Z" fill="white"/>
<path d="M41.5612 4.83101H43.7859L46.0107 13.1233H47.1231L49.5504 4.83101H51.7752L47.5282 18.9883H45.3034L46.5171 15.1455H44.3936L41.562 4.83101H41.5612Z" fill="white"/>
<path d="M60.156 6.75198L61.5986 4.83022H62.8122V2.60543H64.9357V4.83022H68.0704V6.75198H64.9357V13.2238H68.1716V15.1448H62.8122V6.75118H60.156V6.75198Z" fill="white"/>
<path d="M70.9123 13.8003C69.894 12.7693 69.3853 11.4982 69.3853 9.98788C69.3853 8.47758 69.894 7.2073 70.9123 6.17545C71.9306 5.1444 73.1738 4.62847 74.6434 4.62847C76.1131 4.62847 77.357 5.1444 78.3745 6.17545C79.3928 7.20651 79.9016 8.47758 79.9016 9.98788V10.696H71.508C71.6699 11.5452 72.0407 12.2127 72.6204 12.6983C73.2001 13.1839 73.8739 13.4263 74.6426 13.4263C75.586 13.4263 76.3411 13.1903 76.9081 12.7182C77.1641 12.5292 77.3865 12.2932 77.5755 12.0101H79.8003C79.5172 12.6712 79.16 13.231 78.7286 13.6887C77.6226 14.7947 76.2614 15.3473 74.6434 15.3473C73.1738 15.3473 71.9298 14.8314 70.9123 13.8003ZM71.6101 8.97676H77.6776C77.5564 8.30295 77.2358 7.72961 76.7167 7.25754C76.1976 6.78547 75.5062 6.54944 74.6434 6.54944C73.9154 6.54944 73.2679 6.76873 72.7017 7.20651C72.1356 7.64508 71.7711 8.23517 71.6093 8.97597L71.6101 8.97676Z" fill="white"/>
<path d="M82.5912 13.8314C81.6072 12.8203 81.1152 11.5396 81.1152 9.98868C81.1152 8.43771 81.6072 7.15707 82.5912 6.14595C83.5752 5.13483 84.8025 4.62927 86.2721 4.62927C87.9172 4.62927 89.2584 5.25603 90.2966 6.51037C90.7416 7.09008 91.0518 7.71047 91.2272 8.37073H89.0024C88.9083 8.03422 88.7329 7.73041 88.477 7.46088C87.9515 6.85405 87.2162 6.55103 86.2721 6.55103C85.4356 6.55103 84.7387 6.86761 84.1789 7.50155C83.6191 8.13549 83.3392 8.9648 83.3392 9.98948C83.3392 11.0142 83.6191 11.8435 84.1789 12.4774C84.7387 13.1113 85.4356 13.4279 86.2721 13.4279C87.2433 13.4279 88.0049 13.1249 88.5575 12.5181C88.7999 12.2485 88.9825 11.9455 89.1037 11.6082H91.2272C91.0518 12.2956 90.7416 12.9232 90.2966 13.4893C89.272 14.7301 87.9307 15.3497 86.2721 15.3497C84.8025 15.3497 83.5752 14.8441 82.5912 13.833V13.8314Z" fill="white"/>
<path d="M92.9464 0.988281H95.07V6.24642H95.1712C95.3331 5.9769 95.5827 5.70737 95.92 5.43784C96.648 4.89879 97.4773 4.62847 98.4071 4.62847C99.6878 4.62847 100.682 4.99927 101.39 5.74086C102.098 6.48246 102.452 7.56136 102.452 8.97676V15.1455H100.328V9.17931C100.328 8.27584 100.129 7.61239 99.7316 7.18737C99.3337 6.76235 98.7237 6.55024 97.9016 6.55024C97.0794 6.55024 96.4016 6.83013 95.869 7.38991C95.3363 7.9497 95.07 8.68092 95.07 9.58439V15.1463H92.9464V0.988281Z" fill="white"/>
<path d="M59.6561 4.83101H61.8808L57.6338 18.9883H55.409L59.6561 4.83101Z" fill="white"/>
<path d="M54.6028 4.83101H56.8276L52.5806 18.9883H50.3558L54.6028 4.83101Z" fill="white"/>
</svg>
