<svg width="19" height="20" viewBox="0 0 19 20" fill="none" xmlns="http://www.w3.org/2000/svg">
<g clip-path="url(#clip0_0_369)">
<path fill-rule="evenodd" clip-rule="evenodd" d="M19 10.4883C19 15.735 14.7467 19.9883 9.5 19.9883C4.25329 19.9883 0 15.735 0 10.4883C0 5.24158 4.25329 0.988281 9.5 0.988281C14.7467 0.988281 19 5.24158 19 10.4883ZM9.84036 8.0016C8.91634 8.38593 7.06961 9.18139 4.30017 10.388C3.85045 10.5668 3.61487 10.7418 3.59343 10.9129C3.55718 11.202 3.91923 11.3158 4.41225 11.4708C4.47931 11.4919 4.5488 11.5138 4.62004 11.5369C5.10509 11.6946 5.75757 11.8791 6.09677 11.8864C6.40446 11.893 6.74787 11.7662 7.12701 11.5058C9.71459 9.75916 11.0503 8.8763 11.1342 8.85726C11.1933 8.84384 11.2753 8.82695 11.3309 8.87633C11.3864 8.9257 11.3809 9.0192 11.3751 9.04428C11.3392 9.19719 9.91801 10.5184 9.18255 11.2022C8.95328 11.4153 8.79064 11.5665 8.7574 11.6011C8.68292 11.6784 8.60702 11.7516 8.53407 11.8219C8.08344 12.2563 7.74552 12.5821 8.55278 13.1141C8.94071 13.3697 9.25113 13.5811 9.56082 13.792C9.89904 14.0223 10.2364 14.2521 10.6729 14.5382C10.7841 14.6111 10.8903 14.6868 10.9937 14.7605C11.3873 15.0411 11.7409 15.2932 12.1778 15.253C12.4317 15.2297 12.6939 14.991 12.827 14.2791C13.1418 12.5966 13.7604 8.95123 13.9033 7.44905C13.9159 7.31744 13.9001 7.14901 13.8875 7.07507C13.8748 7.00113 13.8484 6.89578 13.7523 6.8178C13.6384 6.72544 13.4627 6.70596 13.3841 6.70735C13.0268 6.71364 12.4786 6.90426 9.84036 8.0016Z" fill="#E27715"/>
</g>
<defs>
<clipPath id="clip0_0_369">
<rect width="19" height="19" fill="white" transform="translate(0 0.988281)"/>
</clipPath>
</defs>
</svg>
