<svg width="19" height="20" viewBox="0 0 19 20" fill="none" xmlns="http://www.w3.org/2000/svg">
<path d="M0 19.9883C0.20421 19.2416 0.398507 18.5326 0.592012 17.8233C0.825565 16.9676 1.06189 16.1122 1.28831 15.2546C1.31044 15.1622 1.29979 15.0651 1.25817 14.9798C0.346166 13.3239 -0.0503587 11.5482 0.108251 9.67188C0.33546 6.98582 1.51631 4.77955 3.60164 3.06934C4.76146 2.1142 6.14127 1.46355 7.61605 1.17633C12.0222 0.300008 16.2603 2.55465 18.076 6.51911C18.7536 8.00093 19.0106 9.55927 18.8845 11.1767C18.5677 15.2446 15.5592 18.7071 11.5758 19.5953C9.33023 20.0957 7.18226 19.8019 5.13182 18.7626C5.04035 18.7203 4.93737 18.7097 4.83919 18.7325C3.30583 19.129 1.77405 19.5303 0.242277 19.9312C0.174074 19.9478 0.105476 19.9629 0 19.9883ZM2.27447 17.7392C2.36487 17.7174 2.43308 17.7019 2.50088 17.6841C3.33358 17.4664 4.16629 17.253 4.99899 17.0262C5.16712 16.9806 5.2944 17.0064 5.44111 17.0933C7.25601 18.1686 9.197 18.487 11.2569 18.0235C15.6584 17.0322 18.3234 12.3928 16.9669 8.09292C15.7309 4.17604 11.82 1.90712 7.79687 2.77948C4.47875 3.50076 1.84979 6.4065 1.68404 10.0724C1.61544 11.5879 1.94813 13.0233 2.74118 14.32C2.99218 14.7304 3.03619 15.0734 2.88908 15.5198C2.65235 16.2407 2.48026 16.9834 2.27447 17.7392Z" fill="#E27715"/>
<path d="M4.70312 8.28639C4.717 7.49969 5.02431 6.85256 5.57984 6.31289C5.66055 6.22995 5.7573 6.16429 5.86418 6.11991C5.97107 6.07554 6.08587 6.05336 6.20159 6.05475C6.33363 6.05475 6.46686 6.07458 6.59811 6.06149C6.87568 6.03413 7.03429 6.17053 7.13144 6.40647C7.39235 7.03139 7.66199 7.65314 7.90466 8.2852C7.94868 8.3998 7.9229 8.58299 7.85708 8.68966C7.67844 8.96576 7.48298 9.23061 7.27181 9.48271C7.14571 9.63894 7.1354 9.77772 7.23731 9.94902C8.00538 11.2385 9.07322 12.1763 10.4733 12.7295C10.6629 12.8044 10.8175 12.7747 10.9472 12.6105C11.1803 12.3163 11.423 12.03 11.6506 11.7306C11.7815 11.5573 11.9345 11.4927 12.1288 11.5823C12.8029 11.8995 13.4723 12.2167 14.1372 12.5494C14.207 12.5843 14.2717 12.7025 14.2744 12.7846C14.3014 13.4844 14.098 14.0705 13.4742 14.4785C12.6978 14.9861 11.8826 15.0305 11.0158 14.787C8.79248 14.1629 7.14135 12.7727 5.81577 10.9376C5.3796 10.3309 4.97752 9.70595 4.80781 8.96524C4.75467 8.74438 4.73643 8.5136 4.70312 8.28639Z" fill="#E27715"/>
</svg>
