<svg width="15" height="16" viewBox="0 0 15 16" fill="none" xmlns="http://www.w3.org/2000/svg">
<g clip-path="url(#clip0_0_953)">
<path d="M12.4422 0.988281H2.55224C1.14268 0.988281 0 2.13138 0 3.54147V13.4351C0 14.8452 1.14268 15.9883 2.55224 15.9883H12.4422C13.8517 15.9883 14.9944 14.8452 14.9944 13.4351V3.54147C14.9944 2.13138 13.8517 0.988281 12.4422 0.988281Z" fill="black"/>
<path d="M7.65671 12.3714C8.68453 12.3714 9.61501 11.9546 10.2886 11.2808C10.9621 10.607 11.3787 9.67614 11.3787 8.64797C11.3787 7.61977 10.9621 6.68894 10.2886 6.01512C9.61501 5.34134 8.68453 4.92456 7.65671 4.92456C6.62893 4.92456 5.69841 5.34134 5.02488 6.01512C4.35131 6.68894 3.93472 7.61977 3.93472 8.64797C3.93472 9.67614 4.35131 10.607 5.02488 11.2808C5.69841 11.9546 6.62893 12.3714 7.65671 12.3714Z" fill="black" stroke="#E27715" stroke-width="0.5" stroke-linejoin="round"/>
<path d="M6.16794 8.64778L7.28454 9.7648L9.51775 7.53076" stroke="#E27715" stroke-width="0.5" stroke-linecap="round" stroke-linejoin="round"/>
</g>
<defs>
<clipPath id="clip0_0_953">
<rect width="14.9944" height="15" fill="white" transform="translate(0 0.988281)"/>
</clipPath>
</defs>
</svg>
